<svg xmlns="http://www.w3.org/2000/svg" width="187" height="187" viewBox="0 0 187 187">
  <g id="Group_4198" data-name="Group 4198" transform="translate(-1207 -1047)">
    <circle id="Ellipse_2059" data-name="Ellipse 2059" cx="93.5" cy="93.5" r="93.5" transform="translate(1207 1047)" fill="#f5f1ee"/>
    <path id="Path_14573" data-name="Path 14573" d="M77.943,61.222V45.859h1.529a1.4,1.4,0,0,0,.7-.191A13.757,13.757,0,0,0,82.6,19.159,16.743,16.743,0,0,0,62.929,9.75a19.841,19.841,0,0,0-34.16,0A16.743,16.743,0,0,0,9.1,19.159a13.757,13.757,0,0,0,2.361,26.5,1.522,1.522,0,0,0,.764.2h1.528V61.222a15.283,15.283,0,1,0,3.057,0V45.859H44.32v6.192a15.283,15.283,0,1,0,3.057,0V45.859h27.51V61.222a15.283,15.283,0,1,0,3.056,0ZM27.51,76.428A12.226,12.226,0,1,1,15.284,64.2,12.227,12.227,0,0,1,27.51,76.428Zm30.565-9.171A12.226,12.226,0,1,1,45.849,55.03,12.227,12.227,0,0,1,58.075,67.258ZM12.416,42.707A10.692,10.692,0,0,1,10.68,21.861a1.53,1.53,0,0,0,.984-.9A13.7,13.7,0,0,1,29,13.024a1.529,1.529,0,0,0,1.868-.749,16.786,16.786,0,0,1,29.954,0,1.528,1.528,0,0,0,1.867.749,13.7,13.7,0,0,1,17.339,7.934,1.529,1.529,0,0,0,.984.9,10.692,10.692,0,0,1-1.736,20.85,1.364,1.364,0,0,0-.352.094H12.786a1.534,1.534,0,0,0-.369-.1Zm64,45.95A12.228,12.228,0,1,1,88.641,76.428,12.227,12.227,0,0,1,76.415,88.657Zm0,0" transform="translate(1254.835 1094.998)" fill="#919191"/>
    <path id="Path_14574" data-name="Path 14574" d="M403.217,371.178v-4.249h-3.056v3.056h-1.529v-3.056h-3.057v3.056h-3.056v3.057h3.056v9.171h-3.056v3.056h3.056v3.057h3.057V385.27h1.529v3.057h3.056v-4.249a4.524,4.524,0,0,0,.394-6.386c-.019-.022-.038-.043-.057-.064a4.525,4.525,0,0,0-.272-6.393Zm-1.528,3.394a1.528,1.528,0,0,1-1.529,1.528h-1.528v-3.057h1.528A1.529,1.529,0,0,1,401.689,374.572Zm-3.057,7.642v-3.057h1.528a1.529,1.529,0,1,1,0,3.057Zm0,0" transform="translate(932.617 793.799)" fill="#919191"/>
    <path id="Path_14575" data-name="Path 14575" d="M57.316,366.927H54.26v3.056H51.2v3.057H54.26v9.171H51.2v3.056H54.26v3.057h3.057v-3.057h1.528v3.057H61.9v-4.249a4.524,4.524,0,0,0,.394-6.386l-.057-.064a4.525,4.525,0,0,0-.273-6.393l-.064-.057v-4.249H58.844v3.057H57.316Zm0,15.285v-3.057h1.528a1.529,1.529,0,1,1,0,3.057Zm3.057-7.642a1.528,1.528,0,0,1-1.529,1.528H57.316V373.04h1.528A1.529,1.529,0,0,1,60.373,374.569Zm0,0" transform="translate(1212.802 793.801)" fill="#919191"/>
    <path id="Path_14576" data-name="Path 14576" d="M227.973,315.73h-3.057v3.057h-3.057v3.057h3.057v9.171h-3.057v3.057h3.057v3.057h3.057v-3.057H229.5v3.057h3.057V332.88a4.525,4.525,0,0,0,.394-6.386l-.057-.064a4.525,4.525,0,0,0-.272-6.393l-.064-.058V315.73H229.5v3.057h-1.528Zm0,15.285v-3.057H229.5a1.529,1.529,0,1,1,0,3.057Zm3.057-7.642A1.529,1.529,0,0,1,229.5,324.9h-1.528v-3.057H229.5A1.528,1.528,0,0,1,231.029,323.372Zm0,0" transform="translate(1072.711 835.826)" fill="#919191"/>
    <path id="Path_14577" data-name="Path 14577" d="M185.947,42.68a15.285,15.285,0,1,0,15.283,15.285A15.284,15.284,0,0,0,185.947,42.68Zm0,27.513a12.228,12.228,0,1,1,12.226-12.228A12.227,12.227,0,0,1,185.947,70.192Zm0,0" transform="translate(1114.737 1059.965)" fill="#919191"/>
    <path id="Path_14578" data-name="Path 14578" d="M232.558,72.527V68.277H229.5v3.057h-1.528V68.277h-3.057v3.057H221.86v3.057h3.057v9.171H221.86v3.057h3.057v3.057h3.057V86.619H229.5v3.057h3.057V85.427a4.525,4.525,0,0,0,.394-6.386l-.057-.064a4.525,4.525,0,0,0-.272-6.393l-.064-.057ZM231.03,75.92a1.529,1.529,0,0,1-1.529,1.529h-1.528V74.392H229.5A1.528,1.528,0,0,1,231.03,75.92Zm-3.057,7.642V80.506H229.5a1.528,1.528,0,1,1,0,3.056Zm0,0" transform="translate(1072.711 1038.953)" fill="#919191"/>
  </g>
</svg>
