<svg xmlns="http://www.w3.org/2000/svg" width="186" height="187" viewBox="0 0 186 187">
  <g id="Group_4201" data-name="Group 4201" transform="translate(-874 -1019)">
    <ellipse id="Ellipse_2058" data-name="Ellipse 2058" cx="93" cy="93.5" rx="93" ry="93.5" transform="translate(874 1019)" fill="#f5f1ee"/>
    <g id="Group_4173" data-name="Group 4173" transform="translate(921.88 1067)">
      <path id="Path_14617" data-name="Path 14617" d="M51.227,440H33.479A1.479,1.479,0,0,0,32,441.479v4.438a1.479,1.479,0,0,0,1.479,1.479H51.227a1.479,1.479,0,0,0,1.479-1.479v-4.438A1.479,1.479,0,0,0,51.227,440Zm-1.479,4.438H34.958v-1.479h14.79Z" transform="translate(-27.563 -360.12)" fill="#919191"/>
      <path id="Path_14618" data-name="Path 14618" d="M40.874,320h-7.4A1.479,1.479,0,0,0,32,321.479v13.313a1.479,1.479,0,0,0,1.479,1.479h7.4a1.479,1.479,0,0,0,1.479-1.479V321.479A1.479,1.479,0,0,0,40.874,320ZM39.4,333.313H34.958V322.958H39.4Z" transform="translate(-27.563 -262.309)" fill="#919191"/>
      <path id="Path_14619" data-name="Path 14619" d="M97.479,368.875H103.4a1.479,1.479,0,0,0,1.479-1.479v-5.917A1.479,1.479,0,0,0,103.4,360H97.479A1.479,1.479,0,0,0,96,361.479V367.4A1.479,1.479,0,0,0,97.479,368.875Zm1.479-5.917h2.958v2.958H98.958Z" transform="translate(-79.731 -294.912)" fill="#919191"/>
      <path id="Path_14620" data-name="Path 14620" d="M99.245,66.1,94.623,61.66a1.478,1.478,0,0,0-1.024-.412H86.573V53.6a4.438,4.438,0,1,0-5.661-5.662H58.032a4.45,4.45,0,0,0-2.7-2.7V40.47a16.269,16.269,0,1,0-2.958,0v4.761a4.45,4.45,0,0,0-2.7,2.7h-22.7A4.437,4.437,0,1,0,21.311,53.6v7.651H9.479A1.479,1.479,0,0,0,8,62.727v35.5a1.479,1.479,0,0,0,1.479,1.479H36.1a1.479,1.479,0,0,0,1.479-1.479V67.165a1.479,1.479,0,0,0-.455-1.067L32.5,61.66a1.478,1.478,0,0,0-1.024-.412h-7.21V53.6a4.45,4.45,0,0,0,2.7-2.7h22.7a4.435,4.435,0,0,0,8.364,0H80.912a4.45,4.45,0,0,0,2.7,2.7v7.651H71.6a1.479,1.479,0,0,0-1.479,1.479v35.5A1.479,1.479,0,0,0,71.6,99.708H98.221A1.479,1.479,0,0,0,99.7,98.228V67.165a1.479,1.479,0,0,0-.455-1.067ZM34.622,96.749H10.958V86.395H34.622ZM30.884,64.206,34.622,67.8V83.436H10.958V64.206ZM22.79,50.893a1.479,1.479,0,1,1,1.479-1.479,1.479,1.479,0,0,1-1.479,1.479ZM40.539,24.267A13.311,13.311,0,1,1,53.85,37.58,13.312,13.312,0,0,1,40.539,24.267ZM53.85,50.893a1.479,1.479,0,1,1,1.479-1.479,1.479,1.479,0,0,1-1.479,1.479Zm31.244-2.958a1.479,1.479,0,1,1-1.479,1.479A1.479,1.479,0,0,1,85.094,47.935ZM96.742,96.749H73.077V86.395H96.742Zm0-13.313H73.077V64.206H93L96.742,67.8Z" transform="translate(-8 -7.994)" fill="#919191"/>
      <path id="Path_14621" data-name="Path 14621" d="M230.79,53.917a4.443,4.443,0,0,0-4.437-4.438,1.479,1.479,0,1,0-2.958,0h-1.479a1.479,1.479,0,1,0-2.958,0h-1.479a1.479,1.479,0,0,0,0,2.958v8.875a1.479,1.479,0,0,0,0,2.958h1.479a1.479,1.479,0,1,0,2.958,0h1.492a1.478,1.478,0,0,0,2.932,0h.013a4.435,4.435,0,0,0,3.3-7.4A4.419,4.419,0,0,0,230.79,53.917Zm-4.437,7.4h-5.916V58.355h5.916a1.479,1.479,0,0,1,0,2.958Zm0-5.917h-5.916V52.438h5.916a1.479,1.479,0,0,1,0,2.958Z" transform="translate(-177.545 -40.602)" fill="#919191"/>
      <path id="Path_14622" data-name="Path 14622" d="M387.227,440H369.479A1.479,1.479,0,0,0,368,441.479v4.438a1.479,1.479,0,0,0,1.479,1.479h17.748a1.479,1.479,0,0,0,1.479-1.479v-4.438A1.479,1.479,0,0,0,387.227,440Zm-1.479,4.438h-14.79v-1.479h14.79Z" transform="translate(-301.444 -360.12)" fill="#919191"/>
      <path id="Path_14623" data-name="Path 14623" d="M369.479,336.272h7.4a1.479,1.479,0,0,0,1.479-1.479V321.479A1.479,1.479,0,0,0,376.874,320h-7.4A1.479,1.479,0,0,0,368,321.479v13.313A1.479,1.479,0,0,0,369.479,336.272Zm1.479-13.313H375.4v10.355h-4.437Z" transform="translate(-301.444 -262.309)" fill="#919191"/>
      <path id="Path_14624" data-name="Path 14624" d="M433.479,368.875H439.4a1.479,1.479,0,0,0,1.479-1.479v-5.917A1.479,1.479,0,0,0,439.4,360h-5.916A1.479,1.479,0,0,0,432,361.479V367.4A1.479,1.479,0,0,0,433.479,368.875Zm1.479-5.917h2.958v2.958h-2.958Z" transform="translate(-353.612 -294.912)" fill="#919191"/>
    </g>
  </g>
</svg>
