<svg xmlns="http://www.w3.org/2000/svg" width="186" height="187" viewBox="0 0 186 187">
  <g id="Group_4200" data-name="Group 4200" transform="translate(-208 -1047)">
    <ellipse id="Ellipse_2056" data-name="Ellipse 2056" cx="93" cy="93.5" rx="93" ry="93.5" transform="translate(208 1047)" fill="#f5f1ee"/>
    <path id="Path_14592" data-name="Path 14592" d="M44.481,136.789a19.829,19.829,0,1,0,19.826,19.829A19.828,19.828,0,0,0,44.481,136.789Zm0,36.607a16.778,16.778,0,1,1,16.776-16.778A16.777,16.777,0,0,1,44.481,173.4Z" transform="translate(235.945 984.292)" fill="#919191"/>
    <path id="Path_14593" data-name="Path 14593" d="M98.956,176.416a4.576,4.576,0,0,0-4.575-4.576H92.856v-3.051h-3.05v3.051H88.28v-3.051H85.23v3.051H80.655v3.051h3.05v15.253h-3.05v3.051H85.23v3.051h3.05v-3.051h1.525v3.051h3.05v-3.051h1.525a4.576,4.576,0,0,0,4.575-4.576v-3.051a4.547,4.547,0,0,0-1.19-3.051,4.547,4.547,0,0,0,1.19-3.051Zm-3.05,12.2a1.525,1.525,0,0,1-1.525,1.525H86.755v-6.1h7.626a1.525,1.525,0,0,1,1.525,1.525Zm0-9.152a1.525,1.525,0,0,1-1.525,1.525H86.755v-6.1h7.626a1.525,1.525,0,0,1,1.525,1.525Z" transform="translate(190.621 958.394)" fill="#919191"/>
    <path id="Path_14594" data-name="Path 14594" d="M91.853,44.384a15.249,15.249,0,0,0-30.346,0H49.154A24.277,24.277,0,0,0,43.1,29.79l4.889-4.89a15.345,15.345,0,1,0-1.688-2.632l-5.361,5.361a24.4,24.4,0,1,0,0,36.553l5.361,5.371a15.269,15.269,0,1,0,1.685-2.628L43.1,62.034a24.276,24.276,0,0,0,6.05-14.6H61.5a15.251,15.251,0,1,0,30.349-3.051Zm-28.9-33.557H66a6.1,6.1,0,0,0-4.575-5.885V3.306a12.192,12.192,0,0,1,0,24.194V25.864A6.089,6.089,0,0,0,59.9,13.878a3.051,3.051,0,1,1,3.05-3.051ZM47.8,13.888A12.191,12.191,0,0,1,58.379,3.306V4.943A6.089,6.089,0,0,0,59.9,16.929a3.051,3.051,0,1,1-3.05,3.051H53.8a6.1,6.1,0,0,0,4.575,5.885V27.5A12.191,12.191,0,0,1,47.8,13.888ZM59.9,64.213a12.2,12.2,0,1,1-12.2,12.2A12.2,12.2,0,0,1,59.9,64.213ZM24.827,67.264A21.354,21.354,0,1,1,46.178,45.91,21.353,21.353,0,0,1,24.827,67.264ZM76.68,58.112a12.2,12.2,0,1,1,12.2-12.2A12.2,12.2,0,0,1,76.68,58.112Z" transform="translate(255.6 1095)" fill="#919191"/>
    <path id="Path_14595" data-name="Path 14595" d="M372.856,187.84v-3.051a10.675,10.675,0,0,0-9.631,6.1h-2.57v3.051H362.3a9.6,9.6,0,0,0,0,3.051h-1.647v3.051h2.57a10.676,10.676,0,0,0,9.631,6.1v-3.051a7.59,7.59,0,0,1-6.061-3.051h4.536v-3.051h-5.948a7.625,7.625,0,0,1,0-3.051h5.948V190.89H366.8A7.591,7.591,0,0,1,372.856,187.84Z" transform="translate(-36 945.444)" fill="#919191"/>
    <path id="Path_14596" data-name="Path 14596" d="M282.129,355.315l6.024-6.025L286,347.133l-5.393,5.393-5.393-5.393-2.157,2.157,6.024,6.025v.523H274.5v3.051h4.575v1.525H274.5v3.051h4.575v4.576h3.05v-4.576H286.7v-3.051h-4.575v-1.525H286.7v-3.051h-4.575Z" transform="translate(34.9 814.054)" fill="#919191"/>
  </g>
</svg>
