<svg xmlns="http://www.w3.org/2000/svg" width="187" height="187" viewBox="0 0 187 187">
  <g id="Group_4199" data-name="Group 4199" transform="translate(-541 -1047)">
    <circle id="Ellipse_2057" data-name="Ellipse 2057" cx="93.5" cy="93.5" r="93.5" transform="translate(541 1047)" fill="#f5f1ee"/>
    <path id="Path_14597" data-name="Path 14597" d="M196.291,276.593H139.654V272h-6.123v3.062h3.061v9.186h-3.061v3.062h3.061v1.531H132v12.248h4.592v1.531h-3.061v3.062h3.061v3.062a1.531,1.531,0,0,0,1.531,1.531h9.184V311.8h3.061v-1.531H151.9V311.8h3.061v-1.531h1.531V311.8h3.061v-1.531h1.531V311.8h3.061v-1.531h1.531V311.8h3.061v-1.531h1.531V311.8h3.061v-1.531h22.961a1.531,1.531,0,0,0,1.531-1.531V278.124A1.531,1.531,0,0,0,196.291,276.593Zm-59.7,21.433h-1.531V291.9h1.531Zm58.168,9.186H139.654V279.655H194.76Z" transform="translate(481.417 875.052)" fill="#919191"/>
    <path id="Path_14598" data-name="Path 14598" d="M5.531,12.248h39.8a1.531,1.531,0,0,0,1.531-1.531V1.531A1.531,1.531,0,0,0,45.33,0H5.531A1.531,1.531,0,0,0,4,1.531v9.186A1.531,1.531,0,0,0,5.531,12.248ZM7.061,3.062H43.8V9.186H7.061Z" transform="translate(584.925 1095)" fill="#919191"/>
    <path id="Path_14599" data-name="Path 14599" d="M90.961,24H69.531a1.531,1.531,0,0,0,0,3.062h21.43a1.531,1.531,0,0,0,0-3.062Z" transform="translate(533.171 1075.593)" fill="#919191"/>
    <path id="Path_14600" data-name="Path 14600" d="M39.061,24H37.531a1.531,1.531,0,0,0,0,3.062h1.531a1.531,1.531,0,0,0,0-3.062Z" transform="translate(559.048 1075.593)" fill="#919191"/>
    <path id="Path_14601" data-name="Path 14601" d="M5.531,84.248h39.8a1.531,1.531,0,0,0,1.531-1.531V73.531A1.531,1.531,0,0,0,45.33,72H5.531A1.531,1.531,0,0,0,4,73.531v9.186A1.531,1.531,0,0,0,5.531,84.248Zm1.531-9.186H43.8v6.124H7.061Z" transform="translate(584.925 1036.778)" fill="#919191"/>
    <path id="Path_14602" data-name="Path 14602" d="M90.961,96H69.531a1.531,1.531,0,0,0,0,3.062h21.43a1.531,1.531,0,0,0,0-3.062Z" transform="translate(533.171 1017.371)" fill="#919191"/>
    <path id="Path_14603" data-name="Path 14603" d="M39.061,96H37.531a1.531,1.531,0,0,0,0,3.062h1.531a1.531,1.531,0,0,0,0-3.062Z" transform="translate(559.048 1017.371)" fill="#919191"/>
    <path id="Path_14604" data-name="Path 14604" d="M90.961,168H69.531a1.531,1.531,0,0,0,0,3.062h21.43a1.531,1.531,0,0,0,0-3.062Z" transform="translate(533.171 959.149)" fill="#919191"/>
    <path id="Path_14605" data-name="Path 14605" d="M39.061,168H37.531a1.531,1.531,0,0,0,0,3.062h1.531a1.531,1.531,0,0,0,0-3.062Z" transform="translate(559.048 959.149)" fill="#919191"/>
    <path id="Path_14606" data-name="Path 14606" d="M245.531,12.248h39.8a1.531,1.531,0,0,0,1.531-1.531V1.531A1.531,1.531,0,0,0,285.33,0h-39.8A1.531,1.531,0,0,0,244,1.531v9.186A1.531,1.531,0,0,0,245.531,12.248Zm1.531-9.186H283.8V9.186H247.061Z" transform="translate(390.847 1095)" fill="#919191"/>
    <path id="Path_14607" data-name="Path 14607" d="M330.961,24h-21.43a1.531,1.531,0,0,0,0,3.062h21.43a1.531,1.531,0,0,0,0-3.062Z" transform="translate(339.093 1075.593)" fill="#919191"/>
    <path id="Path_14608" data-name="Path 14608" d="M279.061,24h-1.531a1.531,1.531,0,0,0,0,3.062h1.531a1.531,1.531,0,0,0,0-3.062Z" transform="translate(364.97 1075.593)" fill="#919191"/>
    <path id="Path_14609" data-name="Path 14609" d="M245.531,84.248h39.8a1.531,1.531,0,0,0,1.531-1.531V73.531A1.531,1.531,0,0,0,285.33,72h-39.8A1.531,1.531,0,0,0,244,73.531v9.186A1.531,1.531,0,0,0,245.531,84.248Zm1.531-9.186H283.8v6.124H247.061Z" transform="translate(390.847 1036.778)" fill="#919191"/>
    <path id="Path_14610" data-name="Path 14610" d="M330.961,96h-21.43a1.531,1.531,0,0,0,0,3.062h21.43a1.531,1.531,0,0,0,0-3.062Z" transform="translate(339.093 1017.371)" fill="#919191"/>
    <path id="Path_14611" data-name="Path 14611" d="M279.061,96h-1.531a1.531,1.531,0,0,0,0,3.062h1.531a1.531,1.531,0,0,0,0-3.062Z" transform="translate(364.97 1017.371)" fill="#919191"/>
    <path id="Path_14612" data-name="Path 14612" d="M330.961,168h-21.43a1.531,1.531,0,0,0,0,3.062h21.43a1.531,1.531,0,0,0,0-3.062Z" transform="translate(339.093 959.149)" fill="#919191"/>
    <path id="Path_14613" data-name="Path 14613" d="M279.061,168h-1.531a1.531,1.531,0,0,0,0,3.062h1.531a1.531,1.531,0,0,0,0-3.062Z" transform="translate(364.97 959.149)" fill="#919191"/>
    <path id="Path_14614" data-name="Path 14614" d="M21.12,165.433a4.564,4.564,0,0,0,8.621,0h37.3a4.582,4.582,0,1,0,5.841-5.842v-3.344H91.252a1.531,1.531,0,0,0,1.531-1.531v-9.186A1.531,1.531,0,0,0,91.252,144h-39.8a1.531,1.531,0,0,0-1.531,1.531v9.186a1.531,1.531,0,0,0,1.531,1.531H69.821v3.344a4.593,4.593,0,0,0-2.78,2.78h-37.3a4.592,4.592,0,0,0-2.78-2.78v-3.344H45.33a1.531,1.531,0,0,0,1.531-1.531v-9.186A1.531,1.531,0,0,0,45.33,144H5.531A1.531,1.531,0,0,0,4,145.531v9.186a1.531,1.531,0,0,0,1.531,1.531H23.9v3.344a4.593,4.593,0,0,0-2.78,2.78H5.531v32.15h19.9v-3.062H8.592V165.433Zm31.864-12.248v-6.124H89.721v6.124Zm18.369,9.186a1.531,1.531,0,1,1-1.531,1.531A1.531,1.531,0,0,1,71.352,162.371ZM7.061,153.186v-6.124H43.8v6.124Zm18.369,9.186A1.531,1.531,0,1,1,23.9,163.9,1.531,1.531,0,0,1,25.43,162.371Z" transform="translate(584.925 978.557)" fill="#919191"/>
    <path id="Path_14615" data-name="Path 14615" d="M336.246,344.5A12.248,12.248,0,1,0,324,332.247,12.247,12.247,0,0,0,336.246,344.5Zm-2.581-4.426.361,1.072a9.127,9.127,0,0,1-3.461-1.7l1.062-2.131a1.541,1.541,0,0,1,.885-.758l1.29-.433c.083.054.173.093.259.141l-.153.306A4.57,4.57,0,0,0,333.665,340.069Zm3.652,1.3-.749-2.261a1.531,1.531,0,0,1,.081-1.168l.6-1.214c.1-.023.19-.061.286-.089l.109.323a4.628,4.628,0,0,0,2.3,2.65l1.015.507A9.12,9.12,0,0,1,337.317,341.364Zm6.132-3.435-2.131-1.062a1.542,1.542,0,0,1-.765-.885l-.435-1.284c.054-.083.095-.173.141-.259l.306.153a4.569,4.569,0,0,0,3.5.243l1.072-.361A9.13,9.13,0,0,1,343.449,337.929Zm.153-9.382.507-1.015a9.124,9.124,0,0,1,1.252,3.644l-2.261.756a1.516,1.516,0,0,1-1.168-.081l-1.214-.612c-.023-.1-.061-.19-.089-.286l.323-.109A4.628,4.628,0,0,0,343.6,328.547Zm-4.776-4.123-.361-1.072a9.128,9.128,0,0,1,3.461,1.7l-1.062,2.123a1.542,1.542,0,0,1-.885.765l-1.29.433c-.083-.054-.173-.095-.259-.141l.153-.306A4.569,4.569,0,0,0,338.827,324.424Zm-1.05,7.823a1.531,1.531,0,1,1-1.531-1.531A1.531,1.531,0,0,1,337.777,332.247Zm-2.6-9.117.749,2.261a1.531,1.531,0,0,1-.081,1.168l-.6,1.214c-.1.023-.19.061-.286.089l-.109-.323a4.628,4.628,0,0,0-2.3-2.65l-1.015-.507A9.12,9.12,0,0,1,335.174,323.131Zm-6.132,3.435h0l2.131,1.062a1.542,1.542,0,0,1,.765.885l.433,1.291c-.054.083-.095.173-.141.259l-.306-.153a4.581,4.581,0,0,0-3.5-.243l-1.072.361A9.13,9.13,0,0,1,329.042,326.566Zm.349,6a1.516,1.516,0,0,1,1.168.081l1.214.612c.023.1.061.19.089.286l-.323.109a4.627,4.627,0,0,0-2.65,2.3l-.507,1.015a9.124,9.124,0,0,1-1.252-3.644Z" transform="translate(326.155 836.237)" fill="#919191"/>
    <path id="Path_14616" data-name="Path 14616" d="M192.246,344.5A12.248,12.248,0,1,0,180,332.247,12.247,12.247,0,0,0,192.246,344.5Zm-2.581-4.426.361,1.072a9.128,9.128,0,0,1-3.461-1.7l1.062-2.131a1.541,1.541,0,0,1,.885-.758l1.29-.433c.083.054.173.093.259.141l-.153.306A4.569,4.569,0,0,0,189.665,340.069Zm3.652,1.3-.749-2.261a1.531,1.531,0,0,1,.081-1.168l.6-1.214c.1-.023.19-.061.286-.089l.109.323a4.628,4.628,0,0,0,2.3,2.65l1.015.507A9.12,9.12,0,0,1,193.317,341.364Zm6.132-3.435-2.131-1.062a1.542,1.542,0,0,1-.765-.885l-.435-1.284c.054-.083.095-.173.141-.259l.306.153a4.569,4.569,0,0,0,3.5.243l1.072-.361A9.13,9.13,0,0,1,199.449,337.929Zm.153-9.382.507-1.015a9.123,9.123,0,0,1,1.252,3.644l-2.261.756a1.516,1.516,0,0,1-1.168-.081l-1.214-.612c-.023-.1-.061-.19-.089-.286l.323-.109A4.627,4.627,0,0,0,199.6,328.547Zm-4.776-4.123-.361-1.072a9.129,9.129,0,0,1,3.461,1.7l-1.062,2.123a1.542,1.542,0,0,1-.885.765l-1.29.433c-.083-.054-.173-.095-.259-.141l.153-.306A4.569,4.569,0,0,0,194.827,324.424Zm-1.05,7.823a1.531,1.531,0,1,1-1.531-1.531A1.531,1.531,0,0,1,193.777,332.247Zm-2.6-9.117.749,2.261a1.531,1.531,0,0,1-.081,1.168l-.6,1.214c-.1.023-.19.061-.286.089l-.109-.323a4.628,4.628,0,0,0-2.3-2.65l-1.015-.507A9.121,9.121,0,0,1,191.174,323.131Zm-6.132,3.435h0l2.131,1.062a1.542,1.542,0,0,1,.765.885l.433,1.291c-.054.083-.095.173-.141.259l-.306-.153a4.581,4.581,0,0,0-3.5-.243l-1.072.361A9.13,9.13,0,0,1,185.042,326.566Zm.349,6a1.516,1.516,0,0,1,1.168.081l1.214.612c.023.1.061.19.089.286l-.323.109a4.627,4.627,0,0,0-2.65,2.3l-.507,1.015a9.123,9.123,0,0,1-1.252-3.644Z" transform="translate(442.601 836.237)" fill="#919191"/>
  </g>
</svg>
